<svg
  
  xmlns="http://www.w3.org/2000/svg"
  viewBox="0 0 500 500">

  <defs>

    <style>.cls-1{
      fill: transparent;
      stroke:#fff;
      stroke-miterlimit:10;
      stroke-width:25px;}
    </style>

  </defs>

  <title>mail</title>

  <g id="Mail">

    <path class="cls-1" d="M18.79,163V352.88c0,18.76,14.35,34.12,31.88,34.12H419.6"/>
    <path class="cls-1"
    d="M481.1,160.85V353c0,18.7-14.29,34-31.75,34H80.29"/>
    <path class="cls-1"
      d="M467,112.1H33.33c-8.74,0-15.89,7.73-15.89,17.18v23.83C17.44,164,23,173.93,31.86,179l205.8,118.22a25.94,25.94,0,0,0,25,0L468.43,179c8.87-5.07,14.42-15,14.42-25.89V129.28C482.85,119.83,475.7,112.1,467,112.1Z"/>

    </g>

</svg>
