<svg xmlns="http://www.w3.org/2000/svg" viewBox="0 0 5263.5 492"><title>X</title><ellipse cx="327.6" cy="153.6" rx="135.5" ry="131.2" transform="translate(30.1 363.3) rotate(-60.9)" fill="#c1272d" opacity="0.53"/><ellipse cx="316" cy="320.2" rx="135.5" ry="131.2" transform="translate(-121.5 438.6) rotate(-60.9)" fill="#29abe2" opacity="0.57"/><ellipse cx="163.9" cy="210.6" rx="135.5" ry="131.2" transform="translate(-103.8 249.4) rotate(-60.9)" fill="#f7931e" opacity="0.6"/><path d="M4,27.6V470a23.9,23.9,0,0,0,24,24H470.4c21.3,0,32-25.8,16.9-40.9L44.9,10.7C29.8-4.4,4,6.3,4,27.6ZM133.2,208.5,289.5,364.8c15.1,15.1,4.4,40.9-16.9,40.9H116.3a24.1,24.1,0,0,1-24-24V225.4C92.3,204.1,118.1,193.4,133.2,208.5Z" transform="translate(-4 -2)" fill="#39b29a"/><line x1="55.7" y1="492" x2="55.7" y2="449.8" fill="none" stroke="#fefffd" stroke-miterlimit="10" stroke-width="4"/><line x1="96" y1="492" x2="96" y2="449.8" fill="none" stroke="#fefffd" stroke-miterlimit="10" stroke-width="4"/><line x1="136.3" y1="492" x2="136.3" y2="449.8" fill="none" stroke="#fefffd" stroke-miterlimit="10" stroke-width="4"/><line x1="176.7" y1="492" x2="176.7" y2="449.8" fill="none" stroke="#fefffd" stroke-miterlimit="10" stroke-width="4"/><line x1="217" y1="492" x2="217" y2="449.8" fill="none" stroke="#fefffd" stroke-miterlimit="10" stroke-width="4"/><line x1="257.3" y1="492" x2="257.3" y2="449.8" fill="none" stroke="#fefffd" stroke-miterlimit="10" stroke-width="4"/><line x1="297.6" y1="492" x2="297.6" y2="449.8" fill="none" stroke="#fefffd" stroke-miterlimit="10" stroke-width="4"/><line x1="338" y1="492" x2="338" y2="449.8" fill="none" stroke="#fefffd" stroke-miterlimit="10" stroke-width="4"/><line x1="378.3" y1="492" x2="378.3" y2="449.8" fill="none" stroke="#fefffd" stroke-miterlimit="10" stroke-width="4"/><line x1="418.6" y1="492" x2="418.6" y2="449.8" fill="none" stroke="#fefffd" stroke-miterlimit="10" stroke-width="4"/><path d="M672.6,90.1a9.4,9.4,0,0,1,6.9-2.9h68.4a9.5,9.5,0,0,1,6.7,16.3L655.9,229.7a9.7,9.7,0,0,0-.3,13.4L763.7,393.4a9.9,9.9,0,0,1-7.3,16.5H680.6a10,10,0,0,1-7.6-3.4L567.9,244.4a18.1,18.1,0,0,1,.9-20.9Z" transform="translate(-4 -2)" fill="#39b29a"/><path d="M1164.2,223.5a18.1,18.1,0,0,1,.9,20.9L1060,406.5a10,10,0,0,1-7.6,3.4H976.6a9.9,9.9,0,0,1-7.3-16.5l108.1-150.3a9.7,9.7,0,0,0-.3-13.4L978.4,103.5a9.5,9.5,0,0,1,6.7-16.3h68.4a9.4,9.4,0,0,1,6.9,2.9Z" transform="translate(-4 -2)" fill="#39b29a"/><path d="M790.1,463.4h50.1c8,0,15.1-5.8,17.3-14.3L959,58.4c3.2-12.6-5.4-25.1-17.3-25.1H891.5c-8,0-15,5.8-17.2,14.3L772.8,438.3C769.6,450.9,778.2,463.4,790.1,463.4Z" transform="translate(-4 -2)" fill="#8961a0"/><path d="M2215.7,11H1947.3C1891,11,1845,57,1845,113.3V381.7c0,56.3,46,102.3,102.3,102.3h268.4c56.3,0,102.3-46,102.3-102.3V113.3C2318,57,2272,11,2215.7,11ZM2264,349.9a80.3,80.3,0,0,1-80.1,80.1H1979.1a80.3,80.3,0,0,1-80.1-80.1V145.1A80.3,80.3,0,0,1,1979.1,65h204.8a80.3,80.3,0,0,1,80.1,80.1Z" transform="translate(-4 -2)" fill="#39b29a"/><path d="M2165.4,108H1997.6a55.7,55.7,0,0,0-55.6,55.6V331.4a55.7,55.7,0,0,0,55.6,55.6h167.8a55.7,55.7,0,0,0,55.6-55.6V163.6A55.7,55.7,0,0,0,2165.4,108ZM2081,332a82,82,0,1,1,82-82A82.1,82.1,0,0,1,2081,332Zm93.5-159a18.5,18.5,0,1,1,18.5-18.5A18.5,18.5,0,0,1,2174.5,173Z" transform="translate(-4 -2)" fill="#39b29a"/><circle cx="2077" cy="248" r="48" fill="#39b29a"/><path d="M2668.1,291.7,2437.8,163V352.9c0,18.7,14.3,34.1,31.9,34.1h398.6c17.5,0,31.8-15.3,31.8-34V160.8Z" transform="translate(-4 -2)" fill="#39b29a" stroke="#fff" stroke-miterlimit="10" stroke-width="25"/><path d="M2886,112.1H2452.3c-8.7,0-15.9,7.7-15.9,17.2v23.8a29.7,29.7,0,0,0,14.5,25.9l205.8,118.2a25.8,25.8,0,0,0,24.9,0L2887.4,179a29.7,29.7,0,0,0,14.5-25.9V129.3C2901.9,119.8,2894.7,112.1,2886,112.1Z" transform="translate(-4 -2)" fill="#39b29a" stroke="#fff" stroke-miterlimit="10" stroke-width="25"/><line x1="4265" y1="30.9" x2="4708" y2="30.9" fill="none" stroke="#fff" stroke-linecap="round" stroke-miterlimit="10" stroke-width="49"/><line x1="4265" y1="171" x2="4708" y2="171" fill="none" stroke="#fff" stroke-linecap="round" stroke-miterlimit="10" stroke-width="49"/><line x1="4265" y1="311.2" x2="4708" y2="311.2" fill="none" stroke="#fff" stroke-linecap="round" stroke-miterlimit="10" stroke-width="49"/><line x1="4890.5" y1="421.5" x2="5237.5" y2="74.5" fill="none" stroke="#39b29a" stroke-linecap="round" stroke-miterlimit="10" stroke-width="52"/><line x1="4890.5" y1="74.5" x2="5237.5" y2="421.5" fill="none" stroke="#39b29a" stroke-linecap="round" stroke-miterlimit="10" stroke-width="52"/><polygon points="3877 209.9 3877 209.9 3627 73.5 3627 182.7 3877 316.9 3877 316.9 4127 182.7 4127 73.5 3877 209.9" fill="#39b29a" stroke="#fff" stroke-miterlimit="10"/><path d="M1279.7,60.2A56.1,56.1,0,0,1,1296.8,19a58.4,58.4,0,0,1,82.4,0,56.4,56.4,0,0,1,17,41.2,56.4,56.4,0,0,1-17,41.2,58.2,58.2,0,0,1-82.4,0A56.1,56.1,0,0,1,1279.7,60.2Zm8.1,102.4h100.4V488H1287.8Z" transform="translate(-4 -2)" fill="#39b29a"/><path d="M1460.5,162.6h96.4v44.2h1.3a80.6,80.6,0,0,1,13.4-18.7,97.4,97.4,0,0,1,20.8-16.8,118.2,118.2,0,0,1,27.4-12,115.4,115.4,0,0,1,33.5-4.7c25.4,0,46,3.9,61.6,11.7s27.8,18.7,36.5,32.5,14.6,30.1,17.7,48.9a372.8,372.8,0,0,1,4.7,60.9V488H1673.4V328.7c0-9.4-.4-19.1-1-29.2a93.5,93.5,0,0,0-6-27.7A48.8,48.8,0,0,0,1651,251c-7-5.3-16.9-8-29.8-8s-23.5,2.3-31.5,7a47.9,47.9,0,0,0-18.4,18.7,77.7,77.7,0,0,0-8.4,26.5,234.4,234.4,0,0,0-2,30.8V488H1460.5Z" transform="translate(-4 -2)" fill="#39b29a"/></svg>